<?xml version="1.0" standalone="no"?>
<!DOCTYPE svg PUBLIC "-//W3C//DTD SVG 20010904//EN"
 "http://www.w3.org/TR/2001/REC-SVG-20010904/DTD/svg10.dtd">
<svg version="1.0" xmlns="http://www.w3.org/2000/svg"
 width="1024.000000pt" height="768.000000pt" viewBox="0 0 1024.000000 768.000000"
 preserveAspectRatio="xMidYMid meet">
<metadata>
Created by potrace 1.15, written by Peter Selinger 2001-2017
</metadata>
<g transform="translate(0.000000,768.000000) scale(0.100000,-0.100000)"
fill="#000000" stroke="none">
<path d="M5550 6320 c-41 -11 -91 -20 -110 -21 -19 -2 -39 -5 -45 -8 -5 -3
-28 -4 -50 -4 -38 2 -38 1 -10 -7 25 -6 26 -8 7 -9 -13 0 -20 -5 -17 -11 4 -7
-3 -9 -22 -5 -19 5 -24 3 -15 -3 10 -7 6 -12 -17 -21 -16 -7 -35 -10 -42 -5
-8 5 -9 3 -5 -5 5 -8 0 -14 -13 -18 -12 -3 -21 -9 -21 -14 0 -5 -3 -8 -7 -7
-5 1 -30 -6 -57 -17 -42 -16 -46 -20 -32 -31 15 -11 15 -14 -7 -30 -32 -26
-46 -49 -24 -41 31 12 18 -1 -63 -58 -44 -32 -82 -65 -85 -74 -3 -9 -25 -38
-50 -66 -24 -27 -45 -56 -45 -64 0 -8 -18 -33 -39 -56 -40 -43 -57 -90 -48
-136 4 -23 4 -22 16 9 7 17 17 32 22 32 5 0 9 7 9 15 0 8 5 15 10 15 6 0 10
-3 10 -6 0 -11 -33 -78 -52 -106 -21 -31 -23 -44 -5 -32 7 5 5 2 -4 -7 -27
-25 -57 -157 -58 -257 0 -35 -6 -80 -12 -100 -12 -36 -18 -286 -11 -462 4 -89
53 -302 89 -382 24 -53 53 -82 61 -59 2 5 9 8 16 5 9 -3 12 5 9 28 -2 22 3 14
15 -24 9 -31 23 -63 30 -70 6 -6 12 -20 12 -30 0 -23 22 -71 38 -83 7 -6 16
-30 19 -53 5 -38 4 -42 -15 -42 -33 0 -55 -52 -47 -110 5 -37 14 -55 43 -81
59 -54 74 -60 101 -37 24 19 24 19 8 76 -21 74 -40 187 -35 204 3 7 20 -17 39
-52 45 -84 122 -162 175 -178 23 -7 67 -12 98 -12 53 0 59 -2 95 -40 41 -43
60 -104 37 -113 -8 -3 -16 -18 -20 -32 -4 -15 -12 -33 -19 -41 -32 -35 -37
-45 -37 -64 0 -19 -4 -21 -30 -15 -34 8 -64 -14 -54 -39 4 -10 1 -16 -9 -16
-8 0 -17 6 -20 13 -3 9 -9 9 -26 -1 -19 -11 -21 -10 -21 9 0 11 5 29 10 40 7
13 7 19 0 19 -5 0 -10 -7 -10 -15 0 -8 -6 -12 -14 -9 -8 3 -16 -2 -19 -13 -5
-15 -5 -15 -4 2 1 11 -10 36 -24 55 -14 19 -36 57 -49 83 -12 26 -24 47 -25
45 -7 -7 8 -58 16 -58 5 0 9 -21 9 -47 0 -34 -7 -55 -25 -79 l-25 -33 37 -3
c35 -3 39 -6 47 -43 8 -37 42 -129 68 -182 16 -32 9 -34 -42 -18 -131 42 -144
45 -153 29 -5 -9 -25 -14 -62 -14 -30 0 -55 -4 -55 -10 0 -5 -11 -10 -25 -10
-14 0 -25 6 -25 13 0 7 -15 28 -34 46 -45 44 -155 70 -193 46 -12 -9 -23 -24
-23 -35 0 -11 -2 -20 -5 -20 -11 0 -84 40 -89 49 -7 11 -218 12 -256 1 -21 -6
-17 -8 25 -14 145 -20 251 -39 261 -47 7 -6 45 -14 85 -19 136 -18 204 -35
207 -52 2 -12 14 -16 48 -15 25 0 49 -4 52 -10 4 -6 21 -13 37 -16 17 -3 46
-10 65 -16 85 -25 115 -29 185 -26 l75 4 34 -45 c34 -44 34 -46 21 -84 -17
-47 -42 -88 -72 -117 -13 -12 -23 -32 -23 -43 0 -12 -5 -18 -10 -15 -6 3 -15
-4 -20 -17 -6 -13 -28 -45 -50 -73 -22 -27 -40 -56 -40 -62 0 -7 -4 -13 -9
-13 -5 0 -12 -11 -15 -25 -4 -14 -11 -25 -16 -25 -6 0 -10 -8 -10 -19 0 -10
-7 -24 -15 -31 -8 -7 -15 -20 -15 -29 0 -9 -4 -21 -8 -26 -22 -25 -44 -106
-46 -172 -4 -88 -17 -109 -41 -64 -12 24 -15 54 -14 114 2 47 -3 98 -10 120
-17 50 -3 82 53 123 38 29 48 45 99 173 31 78 57 147 57 154 0 7 -25 18 -57
26 -32 7 -63 17 -70 23 -6 5 -63 12 -125 14 -80 4 -118 10 -129 20 -9 8 -40
17 -69 19 -28 3 -76 12 -106 21 -29 8 -63 12 -75 9 -14 -5 -19 -3 -15 3 7 12
-101 38 -112 27 -4 -4 -7 -17 -7 -30 -1 -27 25 -35 105 -35 39 0 49 -4 53 -19
4 -15 17 -21 63 -26 33 -3 66 -7 74 -8 8 -1 15 -9 15 -18 0 -33 51 -65 85 -53
13 5 12 7 -2 15 -10 6 -18 14 -18 19 0 15 60 12 61 -2 1 -7 2 -22 3 -33 1 -13
-19 -36 -58 -67 -33 -27 -62 -48 -65 -48 -4 0 -8 -12 -9 -26 -1 -15 -7 -33
-12 -39 -15 -18 -57 -24 -70 -11 -6 6 -41 11 -78 12 -37 1 -94 5 -127 9 -56 7
-59 6 -44 -10 12 -12 36 -18 85 -20 135 -6 197 -27 187 -64 -5 -20 -33 -33
-101 -46 -26 -5 -32 -11 -27 -25 8 -24 0 -28 -65 -34 -86 -8 -124 -17 -137
-34 -7 -9 -13 -12 -13 -8 0 5 -7 3 -15 -4 -8 -7 -25 -10 -40 -6 -27 7 -32 -3
-13 -22 9 -9 7 -13 -8 -18 -10 -4 -23 -13 -27 -21 -4 -7 -14 -13 -22 -13 -8 0
-25 -10 -38 -23 -64 -61 -95 -85 -122 -97 -31 -13 -65 -69 -65 -106 0 -11 -7
-29 -15 -40 -12 -18 -22 -21 -67 -17 -47 4 -117 27 -158 54 -8 5 -34 18 -56
29 -23 11 -47 27 -54 35 -7 8 -20 15 -30 15 -10 0 -23 7 -31 16 -29 35 -138
76 -200 75 -31 0 -129 -51 -140 -72 -4 -8 -10 -26 -13 -40 -4 -20 -14 -28 -37
-33 -31 -6 -31 -7 -15 -25 19 -21 70 -32 161 -36 33 -2 92 -8 130 -15 39 -6
89 -11 113 -10 42 1 112 -25 112 -41 0 -5 -20 -6 -44 -3 -53 8 -71 -11 -20
-20 32 -7 54 -29 41 -42 -9 -10 -107 30 -107 43 0 7 -6 14 -12 14 -7 1 -23 3
-36 4 -21 2 -43 -12 -70 -47 -12 -15 -9 -19 25 -34 55 -24 180 -25 197 -1 8
10 26 17 49 17 45 0 67 8 67 25 0 9 10 13 28 12 15 -1 26 3 25 8 -1 7 12 9 33
7 39 -5 42 -12 13 -32 -11 -8 -37 -42 -57 -75 -20 -33 -72 -115 -116 -181 -45
-67 -101 -159 -126 -205 -25 -45 -53 -84 -62 -87 -10 -2 -15 -9 -12 -14 3 -5
-5 -26 -19 -46 -13 -20 -34 -54 -47 -75 -16 -28 -25 -35 -34 -27 -19 15 -78
19 -98 6 -14 -8 -21 -6 -32 9 -8 11 -16 18 -18 15 -2 -3 -8 -14 -14 -24 -14
-27 -29 -30 -48 -10 -10 10 -23 13 -34 9 -12 -5 -13 -9 -4 -12 6 -3 12 -10 12
-18 0 -7 7 -18 15 -25 13 -10 12 -15 -8 -31 l-22 -18 23 -1 c12 0 22 -4 22
-10 0 -5 -10 -10 -22 -11 l-23 0 24 -10 c13 -5 58 -12 100 -15 41 -3 78 -7 81
-9 3 -2 4 -23 2 -48 -3 -40 -7 -45 -31 -50 -16 -3 -50 1 -76 9 -61 18 -71 18
-55 -1 7 -8 21 -15 31 -15 11 0 19 -4 19 -10 0 -5 -17 -10 -38 -10 -26 0 -45
-7 -57 -20 -10 -11 -25 -20 -33 -20 -13 0 -13 -3 2 -19 14 -15 28 -17 84 -14
37 2 80 5 97 6 46 3 46 -29 1 -37 -41 -8 -48 -26 -11 -26 36 0 31 -17 -9 -30
-18 -6 -44 -22 -56 -35 l-23 -25 22 0 c22 0 22 -1 -9 -40 l-32 -40 -24 19
c-27 21 -40 19 -121 -14 -43 -17 -52 -28 -33 -40 5 -3 10 -11 10 -16 0 -5 -19
1 -42 15 -24 13 -78 36 -120 51 -76 27 -99 45 -58 45 11 0 20 4 20 9 0 16 33
18 68 4 25 -10 42 -11 73 -3 50 14 58 33 28 64 -13 14 -24 30 -24 37 0 6 -29
19 -65 28 -36 10 -76 24 -90 33 -14 9 -46 19 -72 23 -62 8 -68 35 -8 35 29 0
42 5 50 20 15 29 28 25 39 -12 5 -18 10 -27 10 -20 1 10 10 8 34 -7 24 -15 50
-20 97 -20 88 0 142 8 134 21 -4 6 0 14 7 19 10 6 11 11 2 20 -8 8 -29 8 -78
0 -55 -8 -71 -7 -90 5 -12 8 -29 12 -38 8 -9 -3 -24 3 -35 14 -16 16 -17 20
-4 29 13 7 9 14 -19 41 -19 18 -38 32 -42 32 -4 0 -22 13 -40 30 -18 16 -26
30 -19 30 6 0 12 5 12 11 0 7 -9 9 -24 5 -32 -8 -123 79 -105 100 6 8 8 15 3
15 -5 1 -16 3 -24 4 -30 4 -60 17 -60 26 0 5 -9 9 -20 9 -18 0 -130 -103 -130
-120 0 -10 -61 -32 -68 -25 -3 3 0 5 7 5 7 0 9 5 5 12 -5 8 -16 1 -34 -20
l-26 -31 -52 24 c-34 16 -50 29 -47 37 3 8 -6 25 -19 37 -14 13 -23 27 -21 32
3 4 -9 11 -27 14 -18 4 -37 11 -43 15 -5 4 -22 10 -38 14 -24 6 -26 9 -17 26
7 13 7 20 1 20 -14 0 -29 -32 -24 -47 3 -7 13 -13 23 -13 10 0 22 -4 25 -10 3
-5 -3 -10 -14 -10 -11 0 -22 4 -26 9 -3 5 -19 12 -36 16 -28 6 -36 29 -11 31
7 1 15 2 19 3 3 0 -2 9 -11 20 -16 17 -16 19 6 25 41 11 55 6 94 -29 40 -37
94 -49 94 -21 0 12 6 13 30 4 17 -5 43 -8 58 -5 15 3 59 -2 97 -13 124 -32
124 -32 118 -11 -4 16 2 20 49 25 29 3 63 6 74 6 12 0 27 7 34 15 7 8 22 15
34 14 21 0 21 0 -1 -9 -42 -17 -25 -36 60 -70 45 -17 87 -36 92 -40 18 -14
122 -23 129 -11 4 6 16 11 27 11 16 0 17 3 7 19 -8 13 -23 19 -48 19 -44 1
-118 41 -98 53 36 22 -71 48 -204 49 -31 0 -59 4 -62 9 -8 12 39 19 107 15 44
-2 57 0 57 11 0 8 12 18 26 21 35 9 11 24 -39 24 -21 0 -48 5 -59 11 -13 7
-18 7 -14 1 13 -21 -14 -23 -36 -3 -24 23 -57 28 -59 9 -1 -7 -4 1 -8 17 -6
27 -10 30 -51 33 -31 2 -50 9 -60 23 -13 17 -31 21 -107 24 -73 3 -92 1 -97
-10 -8 -23 -76 -20 -76 3 0 21 -69 56 -93 46 -24 -9 -11 -24 21 -24 18 0 23
-3 16 -10 -8 -8 -20 -8 -40 0 -24 8 -26 8 -13 -3 11 -8 15 -22 12 -44 -4 -25
-11 -32 -36 -37 -19 -4 -33 -2 -38 5 -4 7 -14 9 -22 6 -8 -3 -20 0 -26 6 -11
11 -12 10 -15 -15 -1 -8 -12 -12 -26 -10 -50 7 -82 5 -120 -8 -33 -11 -44 -11
-74 4 -19 9 -38 21 -41 25 -3 5 -19 12 -35 16 -17 4 -30 13 -30 21 0 11 4 12
19 4 27 -14 75 4 67 25 -4 12 5 15 52 16 42 0 52 2 36 9 -25 10 -41 30 -24 30
24 0 80 -30 80 -43 0 -8 12 -17 28 -20 35 -7 42 0 8 9 -14 3 -26 10 -26 15 0
5 12 4 26 -2 21 -7 32 -6 51 7 22 14 24 21 18 52 -4 21 -11 41 -16 47 -17 17
-9 28 9 12 10 -10 21 -14 24 -11 4 3 27 -2 52 -10 46 -16 198 -22 230 -10 25
10 19 22 -9 17 -15 -3 -34 2 -49 15 -25 19 -25 19 -5 29 19 8 20 10 5 22 -11
9 -16 10 -16 2 0 -19 -49 -12 -80 10 -20 15 -36 20 -54 15 -14 -3 -34 -1 -45
6 -16 10 -27 9 -55 -5 -29 -13 -36 -22 -36 -46 l0 -29 -45 23 c-25 12 -54 30
-63 38 -9 8 -35 17 -57 21 -22 3 -56 8 -76 11 -29 6 -41 2 -67 -19 l-31 -27
-38 21 c-52 27 -88 26 -120 -6 -22 -22 -30 -25 -46 -15 -30 20 -111 25 -145
10 -32 -14 -33 -39 -1 -39 10 0 19 -5 19 -11 0 -6 -7 -8 -16 -5 -9 3 -27 6
-41 6 -22 0 -24 3 -19 25 5 20 0 31 -21 51 l-28 26 24 19 c28 23 51 25 51 3 0
-13 6 -15 27 -9 36 9 78 10 126 2 28 -5 39 -3 44 9 7 18 -12 40 -40 47 -12 2
-31 8 -42 12 -16 7 -18 6 -7 -6 16 -17 16 -37 0 -21 -7 7 -23 12 -36 12 -15 0
-38 14 -58 35 -18 19 -35 35 -38 35 -5 0 -53 41 -71 61 -5 6 -25 26 -44 45
l-34 34 37 0 c49 0 38 15 -27 35 -69 22 -117 44 -117 54 0 4 -12 14 -28 21
l-27 14 35 5 35 6 -40 24 c-39 24 -40 24 -15 31 15 4 24 13 24 23 -1 9 4 17
12 17 8 0 14 -4 14 -9 0 -5 12 -12 27 -16 16 -3 43 -14 61 -22 27 -13 42 -14
80 -5 25 5 56 8 69 6 17 -3 21 -1 17 11 -4 9 -14 15 -23 14 -9 -1 -23 1 -31 4
-8 4 -51 8 -95 9 l-80 3 36 16 c38 18 60 18 124 0 45 -12 145 -10 145 3 0 4
39 7 87 5 62 -3 87 -1 90 9 3 7 -4 12 -16 12 -11 0 -25 8 -30 19 -12 22 -58
33 -83 20 -13 -7 -20 -4 -27 10 -12 21 -39 29 -111 33 -40 2 -45 0 -42 -17 5
-31 33 -47 68 -40 24 4 33 1 38 -12 9 -24 -24 -50 -36 -29 -5 8 -25 20 -46 26
-66 20 -112 45 -118 63 -3 9 -10 15 -15 11 -5 -3 -7 -10 -4 -15 4 -5 1 -9 -4
-9 -6 0 -11 -10 -11 -22 0 -40 -14 -52 -41 -37 l-24 12 28 10 c34 11 34 18 -5
62 -26 30 -36 35 -57 30 -21 -5 -18 -1 14 21 101 69 155 127 155 170 0 20 -38
64 -54 64 -5 0 -34 15 -65 34 -68 41 -205 86 -390 129 -80 18 -122 8 -168 -38
-26 -26 -33 -41 -33 -72 0 -21 -5 -54 -11 -73 -14 -44 -17 -65 -18 -112 -1
-35 -3 -38 -31 -38 -19 0 -30 5 -30 14 0 8 -14 23 -30 33 -17 9 -30 23 -30 30
0 6 -8 11 -17 11 -10 -1 -28 2 -40 6 l-23 7 0 -1072 0 -1072 43 6 c57 9 77 13
110 26 16 6 32 9 36 6 5 -2 23 0 42 5 19 6 75 15 124 21 50 5 104 11 120 13
17 2 68 7 115 11 47 3 111 13 143 21 32 8 84 17 115 20 32 3 113 19 182 36
100 24 152 31 260 33 74 2 131 2 125 0 -5 -2 -22 -6 -38 -9 -25 -6 -26 -9 -16
-29 17 -32 17 -32 39 -12 19 17 20 17 20 0 0 -10 8 -24 18 -32 15 -13 14 -13
-15 -8 -18 4 -34 2 -38 -4 -3 -6 -15 -11 -26 -11 -16 0 -18 -5 -13 -24 4 -18
1 -25 -13 -29 -10 -2 -3 -3 14 -1 18 1 33 0 33 -4 0 -12 -40 -33 -50 -27 -6 4
-10 1 -10 -4 0 -6 -7 -11 -15 -11 -8 0 -15 5 -15 10 0 6 -5 10 -10 10 -6 0 -9
-5 -8 -12 2 -6 -8 -13 -22 -14 -14 -1 -44 -9 -68 -17 -40 -14 -42 -14 -42 4 0
11 9 28 20 39 20 20 20 20 -11 20 -20 0 -29 4 -26 13 2 6 14 11 25 9 22 -3 30
12 12 23 -6 3 -10 1 -10 -6 0 -9 -3 -9 -15 1 -8 6 -24 9 -37 5 -22 -6 -22 -6
-4 9 21 17 16 33 -6 20 -7 -5 -20 -7 -30 -6 -9 2 -19 -1 -22 -7 -3 -5 3 -7 14
-4 14 4 20 0 20 -11 0 -9 -7 -16 -15 -16 -9 0 -12 -6 -8 -17 5 -13 2 -15 -12
-10 -11 5 -22 1 -31 -10 -9 -12 -13 -14 -14 -5 0 10 -5 10 -22 -2 -12 -9 -30
-16 -40 -16 -10 0 -26 -7 -35 -15 -10 -8 -27 -21 -38 -30 -16 -12 -17 -16 -6
-24 8 -5 26 -5 42 -1 17 5 31 5 35 -1 3 -5 14 -7 25 -4 34 11 20 -24 -19 -44
-24 -13 -29 -37 -9 -44 9 -4 9 -7 0 -18 -15 -15 -17 -33 -4 -24 5 3 12 1 15
-4 3 -5 -3 -11 -14 -14 -11 -3 -20 -10 -20 -15 0 -7 11 -8 31 -2 31 9 31 9 14
-10 -10 -11 -24 -20 -32 -20 -7 0 -13 -7 -13 -15 0 -18 -16 -20 -23 -2 -4 9
-6 9 -6 0 -1 -17 19 -27 32 -14 7 7 14 5 23 -7 14 -19 11 -22 30 36 5 16 6 16
16 -1 5 -10 7 -24 4 -32 -3 -8 0 -16 7 -18 7 -2 9 -8 5 -12 -4 -4 -14 -3 -22
4 -11 9 -15 8 -20 -4 -3 -8 -15 -15 -26 -15 -11 0 -23 -7 -26 -15 -5 -13 -9
-13 -22 -3 -12 10 -16 10 -19 1 -3 -7 -12 -13 -22 -13 -9 0 -23 -6 -29 -12
-10 -10 -15 -10 -21 1 -7 11 -13 10 -37 -2 -55 -28 -74 -30 -74 -10 0 11 5 24
12 31 7 7 9 12 5 12 -4 0 -3 9 3 20 6 11 17 20 24 20 8 0 21 11 30 25 9 14 20
24 24 21 4 -3 9 4 9 15 1 14 -5 19 -22 19 -14 0 -25 7 -28 18 -4 13 -5 12 -6
-5 0 -12 -10 -28 -22 -36 -15 -11 -17 -16 -7 -20 7 -3 4 -6 -8 -6 -11 -1 -25
-6 -32 -13 -9 -9 -15 -9 -24 0 -16 16 -28 15 -28 -3 0 -8 -7 -15 -15 -15 -21
0 -19 -27 3 -34 9 -3 1 -3 -20 0 -32 4 -36 2 -31 -15 6 -24 -42 -60 -58 -44
-8 8 -19 7 -37 -3 -30 -16 -52 -18 -52 -6 0 15 96 53 115 46 15 -6 17 -3 11
20 -5 22 -2 29 23 44 27 15 46 56 34 75 -8 14 -24 -5 -18 -23 4 -12 -1 -19
-17 -23 -29 -8 -32 -3 -18 22 9 17 8 22 -5 27 -22 9 -87 -5 -79 -17 3 -5 14
-7 25 -4 13 5 19 2 19 -10 0 -9 -9 -19 -20 -22 -11 -3 -20 -9 -20 -15 0 -5 9
-4 20 2 17 9 20 8 20 -10 0 -11 -4 -20 -8 -20 -5 0 -17 -8 -28 -17 -10 -10
-30 -19 -43 -21 -23 -2 -24 -2 -7 17 11 12 13 20 6 23 -8 2 -8 11 -1 31 7 17
7 27 1 27 -13 0 -13 50 0 51 6 1 14 2 19 3 20 3 23 16 3 16 -29 0 -72 -18 -72
-30 0 -15 -34 -46 -59 -53 -18 -4 -20 -3 -11 8 30 36 -43 46 -75 11 -11 -12
-17 -17 -12 -12 12 16 8 26 -10 26 -33 0 -1 14 47 20 31 4 51 2 53 -4 2 -6 11
-4 21 7 10 9 22 17 27 17 5 0 9 7 9 16 0 8 4 12 10 9 5 -3 7 0 4 8 -4 10 2 15
20 15 14 0 24 -5 23 -10 -1 -6 4 -13 11 -15 6 -3 12 2 12 10 0 8 9 17 20 20
27 7 26 37 -1 37 -11 0 -17 -4 -14 -10 3 -5 2 -10 -4 -10 -5 0 -11 6 -13 12
-4 10 -11 10 -34 -1 -16 -8 -35 -13 -42 -12 -10 2 -12 -4 -7 -18 5 -18 2 -21
-19 -21 -14 0 -26 4 -26 9 0 9 -64 8 -98 -3 -26 -9 -29 2 -5 20 22 15 12 28
-16 19 -25 -8 -38 -44 -20 -56 11 -6 10 -9 -4 -15 -23 -8 -21 -19 5 -32 22
-10 21 -11 -9 -9 -18 0 -40 -6 -51 -16 -22 -20 -39 -22 -45 -4 -6 20 -37 -12
-37 -39 0 -27 8 -30 24 -9 7 9 16 12 25 6 19 -12 4 -31 -25 -31 l-24 0 0 -140
0 -139 2219 -1 2218 0 7 72 c4 40 14 116 22 168 12 81 43 342 44 376 0 14 -88
16 -113 3 -33 -18 -39 -56 -17 -101 27 -56 25 -84 -6 -104 -32 -21 -112 -23
-125 -3 -12 18 -1 79 18 101 8 9 32 85 53 170 21 84 50 185 63 223 14 39 37
115 52 170 33 123 46 149 79 153 25 3 26 3 12 -35 -9 -26 -10 -46 -4 -63 7
-20 5 -28 -11 -41 -20 -16 -24 -29 -22 -66 1 -15 7 -21 21 -20 13 1 19 6 15
15 -3 8 -1 20 3 26 5 6 12 44 16 84 3 40 11 91 16 115 6 23 19 78 29 122 10
44 30 105 45 136 26 57 29 101 35 469 1 69 20 35 34 -61 9 -59 10 -163 5 -354
-7 -275 -9 -292 -22 -334 -6 -18 -4 -26 8 -33 11 -6 15 -16 11 -28 -3 -11 0
-22 8 -27 23 -14 27 -43 12 -80 -10 -24 -15 -71 -15 -146 0 -153 -17 -125 -22
35 -2 87 -7 128 -14 128 -19 0 -24 -55 -29 -330 -7 -351 -11 -441 -29 -590 -9
-69 -16 -131 -16 -137 0 -10 185 -13 895 -13 l894 0 -20 35 c-11 19 -18 39
-15 44 3 5 0 12 -6 14 -10 4 -9 8 2 17 11 9 12 13 3 17 -7 2 -13 9 -13 14 0 5
6 8 13 6 8 -1 11 10 9 37 -3 26 0 36 7 32 10 -7 15 14 14 52 -2 29 22 3 30
-34 24 -108 27 -115 49 -112 27 4 28 17 11 154 -14 122 -15 365 -1 406 5 15
20 34 34 43 13 8 24 24 24 34 0 10 7 24 15 31 8 7 15 9 15 4 0 -5 7 -70 14
-144 8 -74 18 -180 21 -235 4 -55 9 -104 12 -108 3 -4 4 -65 4 -134 -1 -95 -5
-132 -16 -150 l-15 -23 77 1 c43 1 70 3 60 6 -23 6 -47 54 -47 96 0 38 27 57
79 57 22 0 31 -7 41 -30 8 -18 20 -30 31 -30 24 0 25 50 4 176 -24 144 -19
134 -73 134 -41 0 -52 5 -79 33 -43 46 -53 84 -60 234 -5 110 -3 140 11 176
21 55 63 86 124 94 83 9 144 -38 160 -123 13 -75 3 -94 -52 -94 -42 0 -45 2
-57 35 -13 35 -36 46 -44 23 -2 -7 -1 -56 3 -108 l7 -94 58 -14 c84 -21 93
-38 129 -245 31 -183 34 -301 7 -318 -9 -5 30 -9 96 -9 l110 0 -2 77 c-1 75
-11 173 -33 313 -15 101 -29 238 -32 312 -1 38 -5 68 -9 68 -4 0 -13 -9 -20
-21 -13 -18 -20 -20 -61 -14 -42 6 -47 10 -52 38 -9 55 -10 157 0 166 12 12
75 20 224 27 108 6 128 5 142 -9 15 -15 17 -13 22 31 3 26 8 117 12 202 9 230
11 266 24 365 19 146 20 147 118 206 48 29 108 68 135 87 63 45 76 39 65 -30
-9 -60 -22 -122 -38 -188 -6 -25 -13 -146 -15 -270 -3 -124 -7 -306 -9 -404
-4 -174 -4 -181 19 -220 13 -23 49 -115 80 -206 77 -223 113 -311 136 -336 10
-11 19 -23 19 -27 0 -11 -38 -8 -45 3 -4 6 -10 8 -15 5 -4 -3 -13 2 -20 10
-19 23 -28 9 -23 -37 4 -36 1 -45 -18 -56 -27 -17 -42 -1 -35 38 2 14 -1 42
-7 62 -12 39 -34 48 -92 38 -30 -5 -30 -6 -32 -78 -2 -41 1 -71 6 -68 11 7 21
-18 21 -55 l0 -29 1305 0 1305 0 0 1239 0 1240 -27 18 c-27 18 -106 57 -130
64 -8 3 -9 9 -3 18 7 12 11 12 24 2 9 -7 23 -10 32 -7 9 4 22 2 28 -3 11 -9
39 -14 64 -12 18 2 15 48 -4 55 -24 9 -54 7 -54 -4 0 -5 -26 -7 -61 -5 -38 3
-58 1 -54 -5 3 -6 1 -10 -4 -10 -6 0 -11 5 -11 11 0 6 -12 9 -27 8 -30 -3
-144 42 -125 49 7 2 12 8 12 13 0 13 -38 11 -42 -2 -5 -14 -103 17 -120 39
-11 13 -11 14 2 7 13 -8 13 -6 1 8 -7 9 -17 14 -22 12 -7 -5 -126 78 -140 97
-3 5 -19 16 -36 26 -16 9 -50 29 -75 45 -26 16 -78 34 -122 42 -42 8 -86 21
-99 29 -12 7 -40 16 -62 19 l-40 5 33 -14 c39 -17 40 -23 5 -22 -16 0 -56 0
-91 -1 -57 -1 -63 -3 -72 -26 -5 -14 -13 -25 -17 -24 -20 3 -34 -2 -28 -11 3
-5 -3 -10 -14 -10 -10 0 -21 -5 -23 -11 -3 -9 -9 -9 -24 -1 -12 6 -57 21 -100
32 -43 12 -86 27 -94 35 -8 7 -42 25 -75 40 -33 15 -79 35 -102 45 -23 11 -66
22 -95 26 -29 4 -58 10 -63 15 -6 4 -31 11 -55 15 -25 4 -49 10 -55 14 -21 15
-108 20 -147 8 -29 -9 -41 -9 -47 0 -3 6 -15 9 -26 7 -11 -2 -23 -4 -27 -4 -3
-1 -8 -9 -10 -19 -3 -11 -12 -1 -29 33 -37 76 -139 168 -139 125 0 -5 5 -10
11 -10 5 0 7 -4 4 -10 -3 -5 -11 -10 -16 -10 -6 0 -8 4 -5 8 3 5 -4 16 -15 25
-14 13 -17 22 -10 35 19 36 7 91 -28 122 -18 17 -39 30 -47 30 -8 0 -14 4 -14
9 0 5 -10 11 -22 14 -13 3 -54 17 -91 31 -92 35 -160 42 -217 22 -25 -9 -60
-16 -78 -16 l-32 0 5 133 c7 159 9 167 41 167 22 0 64 31 64 48 0 4 5 48 10
97 15 145 14 589 -3 660 -8 36 -11 71 -6 88 7 27 -3 127 -16 147 -3 5 -12 44
-20 87 -8 43 -20 98 -26 123 -5 25 -15 77 -20 115 -13 93 -26 140 -55 196 -29
59 -105 167 -136 196 -54 49 -173 133 -190 133 -10 0 -18 7 -18 15 0 8 5 15
10 15 6 0 10 5 10 10 0 6 -7 10 -17 10 -34 0 5 17 45 19 23 2 13 31 -12 31
-19 0 -24 6 -30 38 -9 56 -91 159 -159 200 -63 38 -157 78 -279 118 -46 15
-108 43 -138 61 -31 18 -69 34 -85 36 -17 2 -48 12 -70 21 -127 56 -184 66
-410 71 -135 4 -172 1 -235 -15z m-6 -849 c4 -5 3 -11 -1 -14 -5 -2 -1 -2 7 0
19 6 19 6 58 4 22 -1 31 -5 26 -12 -5 -8 1 -10 20 -7 14 3 26 2 26 -3 0 -4
-12 -9 -27 -11 -38 -4 -39 -23 0 -25 76 -5 82 -8 85 -40 2 -24 -1 -33 -17 -38
-18 -5 -27 -28 -22 -57 0 -5 -6 -8 -15 -8 -13 0 -14 -3 -4 -15 11 -13 15 -12
31 8 10 13 21 36 24 50 4 15 11 30 16 33 5 3 7 9 5 13 -3 4 2 8 10 8 11 0 14
-7 11 -24 -3 -14 1 -23 9 -23 9 0 10 -8 4 -31 -8 -26 -7 -30 6 -25 11 4 14 0
12 -12 -1 -9 1 -23 5 -29 5 -8 3 -13 -7 -13 -8 0 -16 5 -18 12 -3 7 -11 9 -24
4 -12 -6 -15 -10 -6 -13 13 -5 17 -24 5 -22 -25 4 -43 -3 -43 -16 0 -8 -6 -15
-13 -15 -9 0 -13 -17 -14 -55 -1 -30 2 -55 6 -55 10 0 33 68 26 79 -3 5 0 13
6 17 16 10 29 -17 18 -37 -14 -26 -11 -36 11 -42 24 -6 36 9 21 27 -15 18 -3
46 15 39 8 -3 21 0 29 7 14 11 14 10 5 -14 -15 -40 -13 -48 11 -41 21 7 22 5
15 -36 -4 -27 -14 -49 -26 -58 -11 -7 -20 -24 -20 -37 0 -35 -26 -29 -34 8 -8
42 -20 28 -21 -25 0 -25 -5 -42 -12 -42 -6 0 -20 -10 -31 -22 -11 -13 -29 -23
-41 -23 -11 0 -21 -3 -21 -7 0 -5 -18 -9 -41 -11 -48 -3 -121 -30 -132 -49 -4
-7 -14 -13 -21 -13 -8 0 -19 -7 -26 -15 -7 -9 -18 -14 -24 -12 -6 2 -23 -2
-38 -9 -15 -8 -60 -26 -100 -40 -43 -16 -82 -38 -95 -53 -13 -14 -23 -22 -23
-17 0 4 -8 -1 -17 -13 -10 -11 -50 -32 -89 -45 l-70 -23 4 91 c2 50 8 96 13
101 4 6 8 20 8 30 0 11 1 39 1 62 1 23 -3 51 -9 61 -20 37 -50 169 -45 198 9
51 14 58 86 114 39 30 104 82 144 115 90 75 231 155 273 155 16 0 33 5 36 10
8 13 52 13 59 1z m1530 -650 c20 -13 40 -37 49 -59 18 -45 32 -142 20 -142 -4
0 -33 7 -63 15 -30 8 -72 15 -92 15 -21 0 -38 4 -38 8 0 9 -59 36 -78 35 -7
-1 -63 6 -125 14 -62 8 -136 17 -166 20 -39 4 -59 11 -72 27 -10 11 -18 24
-19 27 0 11 190 46 320 59 128 13 224 6 264 -19z m-960 -457 c9 -8 14 -19 11
-24 -3 -5 0 -10 5 -12 6 -2 12 -28 13 -59 2 -30 7 -60 10 -66 9 -14 9 -145 0
-220 -4 -43 -13 -61 -45 -98 -22 -25 -44 -45 -49 -45 -6 0 -20 -11 -33 -25
-28 -31 -35 -31 -114 -3 -60 22 -64 22 -92 6 -29 -16 -30 -16 -41 4 -21 39 -1
84 71 162 45 49 72 87 79 113 47 182 57 209 83 239 16 18 39 35 51 37 12 2 25
5 29 6 4 0 14 -6 22 -15z m-161 -630 c30 -4 47 -11 47 -20 0 -8 -8 -15 -17
-16 -10 0 -22 -2 -28 -3 -5 -2 -25 -3 -44 -4 -31 -1 -33 -3 -29 -31 3 -16 1
-30 -4 -30 -4 0 -8 -9 -8 -20 0 -21 -15 -27 -25 -10 -4 6 -11 8 -16 4 -6 -3
-39 -7 -74 -9 -50 -3 -63 -1 -59 10 4 10 -1 12 -15 8 -15 -4 -21 -1 -21 12 0
14 -3 15 -15 5 -12 -10 -13 -16 -3 -28 10 -13 10 -14 0 -8 -8 5 -15 -2 -22
-18 -11 -29 -28 -34 -36 -11 -11 27 41 82 83 89 35 5 84 27 173 76 19 11 42
18 50 15 8 -2 36 -7 63 -11z m67 -394 c16 -10 -1 -14 -62 -13 -19 1 -25 -3
-21 -13 3 -8 12 -14 20 -14 8 0 11 -5 7 -12 -4 -6 -3 -8 4 -4 12 7 45 -22 37
-34 -2 -4 -22 -4 -44 0 -39 7 -45 1 -28 -27 4 -7 4 -21 -1 -30 -13 -24 -22
-163 -11 -163 5 0 9 6 9 13 0 9 3 8 9 -2 7 -11 21 -11 77 -2 81 13 113 12 134
-4 8 -7 22 -15 30 -18 12 -4 11 -6 -2 -6 -10 -1 -18 -8 -18 -16 0 -8 -5 -15
-11 -15 -5 0 -8 -4 -5 -9 9 -13 -43 -64 -59 -57 -8 3 -19 -3 -24 -12 -6 -9
-11 -14 -11 -10 0 4 -15 1 -32 -7 -24 -9 -38 -10 -52 -3 -15 8 -21 8 -24 -1
-6 -17 -30 -13 -41 7 -10 16 -10 16 -11 0 0 -23 -9 -23 -25 -1 -11 14 -17 15
-37 6 -22 -10 -28 -8 -53 20 -15 18 -27 33 -27 34 5 10 -13 33 -24 33 -8 0
-14 9 -14 19 0 11 -4 22 -9 25 -5 4 -14 30 -20 58 -10 44 -9 53 4 60 8 5 15
22 15 39 0 17 6 32 15 35 8 4 15 13 15 21 0 18 28 46 48 49 9 2 19 9 24 18 5
9 31 17 66 22 31 3 64 10 72 15 20 11 62 11 80 -1z m-464 -543 c9 3 14 -2 14
-16 0 -16 6 -21 25 -21 16 0 25 -6 25 -16 0 -8 5 -12 10 -9 6 3 10 -1 10 -9 0
-9 7 -16 15 -16 21 0 59 -36 51 -48 -3 -6 16 -20 44 -33 27 -12 50 -27 50 -31
0 -5 5 -6 10 -3 6 3 10 2 10 -3 0 -6 9 -8 20 -5 11 3 20 0 20 -6 0 -6 7 -11
16 -11 8 0 12 -4 9 -10 -9 -14 8 -13 23 2 16 16 38 -14 46 -64 4 -21 11 -38
16 -38 12 0 9 -22 -5 -32 -6 -4 -2 -8 8 -8 10 0 15 -4 12 -10 -3 -5 -2 -10 4
-10 6 0 8 -7 5 -15 -4 -8 -1 -15 4 -15 18 0 9 -40 -10 -46 -19 -6 -25 -34 -8
-34 5 0 8 -20 6 -45 -2 -25 0 -48 5 -51 4 -2 5 -12 2 -20 -3 -9 0 -20 7 -24 7
-4 14 -19 15 -33 3 -26 38 -83 64 -103 12 -9 10 -12 -10 -17 -29 -8 -58 -47
-34 -47 8 0 15 -4 15 -10 0 -5 -9 -10 -20 -10 -32 0 -34 -1 -52 -17 -16 -14
-18 -14 -24 1 -5 13 -11 11 -35 -16 -27 -31 -27 -33 -9 -40 11 -4 20 -14 20
-23 0 -11 -8 -14 -34 -10 -67 8 -114 45 -188 150 -48 67 -62 104 -105 268 -31
124 -34 143 -23 176 11 33 8 54 -29 201 -42 166 -49 216 -31 205 6 -3 11 0 11
7 1 7 4 1 6 -14 3 -18 9 -25 19 -21z m-71 -246 c-11 -19 25 -219 60 -336 21
-66 52 -145 70 -175 18 -30 44 -76 59 -102 15 -26 36 -53 47 -59 12 -6 38 -26
59 -45 31 -28 52 -37 106 -46 93 -16 339 4 459 36 203 55 245 72 330 135 95
71 106 62 26 -22 -39 -41 -121 -96 -121 -81 0 3 -13 -4 -29 -15 -16 -12 -41
-21 -56 -21 -17 0 -24 -4 -19 -12 5 -7 3 -8 -6 -3 -7 4 -15 3 -19 -2 -3 -5
-31 -22 -61 -37 -74 -38 -103 -48 -95 -36 3 6 1 10 -4 10 -6 0 -11 -5 -11 -11
0 -15 -37 -47 -64 -55 -38 -12 -49 -44 -15 -44 15 0 19 5 15 15 -3 8 -1 15 4
15 6 0 10 -4 10 -10 0 -5 3 -9 8 -9 31 5 54 -2 48 -17 -4 -12 -1 -14 13 -9 29
9 69 -4 67 -23 -1 -13 11 -16 67 -18 37 -1 67 2 67 7 0 16 17 10 24 -8 3 -10
9 -24 12 -31 4 -8 0 -10 -10 -6 -10 4 -16 1 -16 -9 0 -9 -16 -20 -37 -27 -53
-17 -61 -27 -39 -48 11 -9 16 -12 12 -5 -3 6 -2 14 4 18 5 3 10 4 10 1 0 -2 3
-11 6 -20 3 -9 1 -16 -4 -16 -6 0 -23 -5 -39 -12 -15 -6 -31 -12 -35 -13 -5
-2 -10 -4 -13 -5 -3 -1 -9 -3 -14 -4 -5 0 -12 -4 -16 -8 -4 -4 -13 -4 -21 -1
-8 3 -17 -3 -20 -12 -5 -13 -9 -14 -15 -3 -6 8 -9 0 -9 -24 0 -43 -19 -52 -21
-10 l-2 27 -4 -28 c-3 -19 -10 -27 -21 -25 -13 2 -16 -3 -14 -24 2 -20 -2 -28
-13 -28 -8 0 -15 -7 -15 -16 0 -11 6 -14 21 -9 17 6 20 3 17 -12 -2 -10 -10
-18 -17 -18 -8 0 -16 -6 -19 -14 -3 -9 1 -11 17 -6 19 6 21 2 21 -27 -1 -31
-1 -32 -15 -14 -15 19 -15 19 -15 -2 0 -12 -6 -21 -12 -19 -9 1 -12 -10 -11
-36 2 -31 0 -38 -12 -33 -9 3 -15 0 -15 -9 0 -8 -4 -15 -10 -15 -5 0 -9 -3 -9
-7 1 -5 1 -18 0 -30 -1 -26 -21 -32 -21 -7 0 8 -5 12 -11 8 -6 -3 -8 -15 -6
-26 3 -11 3 -26 0 -34 -4 -12 -8 -11 -19 3 -13 17 -13 17 -14 -3 0 -13 8 -24
20 -27 33 -9 24 -35 -15 -43 -39 -7 -46 -19 -15 -27 23 -6 27 -27 5 -27 -8 0
-15 -7 -15 -15 0 -8 -4 -15 -10 -15 -5 0 -10 5 -10 12 0 6 -3 9 -6 6 -8 -9 7
-98 17 -98 5 0 9 8 10 18 0 14 2 14 9 -3 16 -37 12 -44 -15 -32 -17 8 -27 24
-34 52 l-9 40 -1 -40 c-1 -35 -3 -38 -15 -23 -7 10 -16 15 -19 11 -4 -3 -9 2
-13 11 -3 9 -13 16 -20 16 -8 0 -37 23 -64 51 -40 41 -50 59 -55 97 -3 26 -11
58 -17 72 -15 34 -16 89 -1 94 6 3 9 14 6 25 -3 12 -9 18 -14 15 -5 -3 -9 5
-10 18 0 13 -3 17 -6 11 -8 -20 -23 -15 -23 8 0 11 -4 17 -10 14 -6 -4 -10 6
-10 24 0 21 -6 32 -21 36 -16 5 -19 12 -15 30 4 14 0 29 -7 37 -8 7 -12 19 -9
27 3 8 0 11 -6 7 -15 -9 -20 50 -5 70 7 10 11 23 9 30 -6 14 58 86 69 76 4 -4
4 4 0 18 -4 14 -11 27 -15 30 -9 6 -34 52 -35 63 0 4 -5 11 -12 15 -26 16 -73
98 -73 129 0 17 -4 35 -10 38 -5 3 -10 18 -10 32 0 15 -8 45 -18 67 -32 71
-54 137 -89 271 -33 122 -34 136 -28 235 6 109 19 170 36 170 6 0 8 -4 4 -9z
m-261 -143 c-4 -24 -12 -50 -19 -58 -7 -8 -15 -28 -17 -45 -3 -16 -19 -82 -36
-145 -17 -63 -32 -128 -34 -144 -6 -53 -25 -39 -49 35 -17 51 -29 73 -45 79
-29 11 -42 33 -23 38 31 10 110 105 145 174 57 114 89 141 78 66z m3194 -1280
c45 -96 47 -114 14 -126 -58 -22 -81 -23 -101 -3 -10 10 -20 23 -22 29 -5 15
-49 4 -49 -12 0 -6 14 -55 31 -109 34 -107 27 -100 94 -82 37 11 56 -15 58
-80 2 -59 2 -60 -31 -75 -33 -14 -33 -16 -27 -58 4 -24 12 -60 19 -80 7 -21
19 -67 26 -105 9 -46 18 -67 28 -67 11 0 13 9 8 40 -6 37 -4 41 20 50 42 16
72 12 89 -13 13 -21 12 -32 -9 -119 -30 -127 -44 -148 -99 -149 -23 -1 -59 -3
-79 -4 -20 -2 -41 2 -46 8 -14 17 -34 121 -27 139 4 9 -5 64 -20 124 -38 162
-46 188 -59 203 -8 11 -8 15 1 18 9 3 9 11 -3 28 -9 13 -13 29 -9 36 6 8 10 7
16 -2 11 -16 5 66 -6 94 -4 9 -2 23 4 31 9 11 8 15 -5 20 -9 4 -18 5 -19 4 -1
-2 -8 -12 -14 -23 -12 -19 -12 -19 -8 3 4 14 0 22 -9 22 -8 0 -15 8 -16 18 0
9 -2 22 -2 28 -1 6 -7 19 -15 28 -12 14 -10 15 18 10 26 -6 30 -4 25 10 -3 9
-10 13 -15 10 -5 -3 -9 1 -9 9 0 8 7 17 15 21 8 3 15 12 15 20 0 8 15 27 34
41 19 14 37 33 40 41 7 19 -4 40 -13 27 -8 -11 -75 -43 -91 -43 -7 0 -10 -7
-6 -16 4 -12 2 -15 -9 -10 -14 5 -19 -5 -27 -59 -5 -31 -21 -24 -41 16 -26 54
-11 79 71 117 81 38 123 50 183 51 l47 1 30 -62z m-3478 -58 c0 -5 -7 -7 -16
-3 -11 4 -22 -1 -30 -12 -17 -23 -18 -45 -2 -45 6 0 9 3 5 6 -10 10 20 34 41
34 11 0 22 5 24 10 2 7 20 7 57 0 30 -5 68 -10 86 -10 23 0 37 -7 48 -22 13
-20 18 -21 36 -10 52 31 84 -1 101 -101 5 -29 23 -117 40 -197 25 -121 30
-168 30 -280 0 -174 -18 -262 -62 -307 -17 -18 -39 -33 -47 -32 -29 1 -75 35
-95 69 -18 31 -19 40 -8 174 12 144 24 247 41 371 13 87 14 175 2 175 -4 0
-14 -42 -21 -92 -14 -103 -22 -125 -75 -188 l-36 -43 2 -93 c2 -87 16 -175 32
-190 12 -13 8 -89 -7 -109 -10 -15 -26 -19 -61 -19 -77 2 -82 11 -95 209 -6
94 -14 181 -17 195 l-5 25 -13 -26 c-18 -34 -45 -211 -34 -223 12 -13 11 -63
-2 -108 -8 -30 -15 -38 -33 -38 -38 0 -75 37 -82 81 -4 21 -10 39 -15 39 -14
0 -11 26 5 39 8 7 16 45 20 101 4 49 15 122 25 162 31 120 63 297 66 363 4 83
16 105 60 105 19 0 35 -4 35 -10z m2974 -44 c19 -39 21 -61 11 -111 -5 -22 5
-60 36 -140 23 -60 43 -117 44 -125 3 -18 12 -44 31 -89 8 -18 13 -36 10 -39
-3 -2 -1 -12 4 -22 5 -9 10 -34 12 -54 1 -20 5 -36 9 -36 5 0 5 -66 0 -80 -4
-10 -31 86 -31 112 0 15 -4 29 -10 33 -5 3 -7 12 -4 19 6 15 -10 29 -36 33 -8
1 -16 7 -18 12 -2 6 -8 11 -13 11 -5 0 -8 -26 -6 -60 5 -62 -6 -73 -19 -17 -3
17 -11 43 -17 57 -6 14 -11 27 -12 30 -1 3 -9 21 -17 40 -51 111 -68 152 -68
163 0 7 -4 17 -9 22 -5 6 -16 33 -25 61 -9 28 -23 60 -31 70 -21 28 -19 107 3
127 22 20 90 36 117 27 11 -4 28 -23 39 -44z m-5721 -1 c58 -7 70 -17 41 -33
-10 -6 -13 -12 -6 -16 6 -3 17 1 25 9 9 8 20 15 26 15 6 0 11 5 11 11 0 11 61
2 70 -11 3 -4 17 -10 33 -14 15 -3 27 -13 27 -20 0 -19 27 -28 49 -17 9 5 23
6 31 1 11 -7 10 -11 -4 -25 -14 -14 -25 -15 -71 -7 -39 6 -55 6 -55 -2 0 -39
-143 -43 -181 -5 -10 10 -29 19 -41 19 -29 1 -68 33 -68 56 0 22 30 56 45 50
7 -2 37 -7 68 -11z m3183 -74 c-3 -5 1 -21 9 -37 7 -15 12 -31 9 -36 -3 -4 4
-8 14 -8 11 0 22 -7 26 -15 3 -8 1 -15 -4 -15 -6 0 -10 -21 -10 -46 0 -27 4
-43 10 -39 6 3 10 17 10 31 0 20 4 25 21 22 28 -4 46 -41 56 -113 l8 -60 40 0
c46 0 69 -11 61 -30 -2 -7 4 -15 14 -18 23 -6 37 -54 23 -76 -5 -8 -32 -23
-59 -32 l-49 -18 2 -111 c2 -79 7 -121 19 -146 13 -26 15 -49 10 -91 -4 -31
-9 -60 -12 -64 -8 -14 -138 -11 -152 3 -17 17 -15 104 4 133 13 20 14 35 5 97
-6 40 -13 109 -16 153 -13 160 -46 420 -55 429 -18 18 -5 96 16 96 3 0 3 -4 0
-9z m-4252 -392 c-5 -9 1 -10 20 -5 25 6 27 5 21 -16 -4 -13 -14 -30 -21 -39
-8 -8 -14 -20 -14 -25 0 -5 5 -2 10 6 8 13 10 13 10 1 0 -12 3 -12 12 -3 7 7
20 12 30 12 29 0 21 -34 -14 -54 -27 -16 -30 -17 -25 -3 5 14 2 15 -21 6 -15
-6 -29 -10 -32 -10 -3 1 -5 -7 -5 -16 0 -17 4 -18 46 -6 9 3 19 -2 22 -10 4
-11 0 -13 -14 -10 -10 3 -19 0 -19 -6 0 -6 -11 -11 -25 -11 -33 0 -32 -15 5
-52 34 -34 34 -36 1 -40 -18 -2 -24 3 -27 21 -6 37 -13 38 -25 3 -6 -18 -15
-32 -19 -32 -17 0 -19 32 -4 55 16 24 15 25 -12 35 l-28 11 27 25 c15 14 25
29 22 35 -4 5 -1 9 4 9 6 0 3 8 -6 19 -14 14 -20 15 -28 6 -12 -14 -65 -26
-65 -14 0 14 108 61 132 57 19 -2 23 2 26 30 2 17 8 32 13 32 6 0 7 -5 3 -11z
m1344 -153 c23 3 32 0 30 -9 -2 -7 2 -12 7 -12 6 0 9 3 8 8 -2 4 5 7 16 7 14
0 17 -6 13 -26 -3 -19 -9 -24 -23 -21 -13 4 -22 -4 -31 -24 -7 -17 -23 -32
-35 -35 -25 -7 -31 -24 -9 -24 10 0 13 -8 11 -21 -6 -31 -12 -34 -20 -10 -7
24 -11 25 -53 10 -21 -7 -36 -7 -50 0 -21 11 -38 60 -25 70 4 3 14 18 22 32 8
17 25 29 42 33 21 4 29 11 29 27 0 20 1 21 18 7 10 -10 30 -14 50 -12z m5775
-53 c9 -17 14 -54 13 -92 -2 -74 -14 -87 -85 -96 -25 -3 -61 -8 -80 -11 -31
-5 -32 -4 -18 10 8 9 19 16 23 16 9 0 50 44 71 76 8 13 21 24 29 24 23 0 35
35 20 56 -13 16 -17 17 -40 5 -14 -8 -28 -12 -31 -9 -10 9 6 37 23 41 43 12
62 6 75 -20z"/>
<path d="M4976 924 c-14 -45 -36 -185 -31 -194 3 -6 21 -10 38 -10 l32 0 19
100 c10 55 17 102 14 105 -2 3 -18 8 -35 11 -25 5 -32 2 -37 -12z"/>
<path d="M1953 4363 c-29 -2 -53 -8 -53 -12 0 -5 -9 -11 -20 -14 -11 -3 -20
-13 -20 -22 0 -12 5 -15 21 -10 15 5 19 4 15 -4 -10 -16 -47 -14 -60 4 -9 13
-17 13 -46 3 -100 -34 -115 -44 -111 -70 0 -5 -14 -9 -32 -9 -57 -3 -62 -4
-87 -19 -31 -17 -61 -14 -122 12 -26 11 -51 18 -55 15 -5 -3 -27 -2 -49 3 -48
12 -74 4 -74 -20 0 -18 -10 -18 -172 -15 -95 1 -184 7 -198 13 -14 5 -41 8
-60 5 -47 -5 -60 -5 -92 3 -35 8 -37 -8 -3 -30 29 -19 52 -21 58 -3 3 9 7 9
21 -2 9 -7 35 -13 59 -13 23 0 60 -4 82 -10 22 -6 47 -12 55 -13 8 0 27 -9 42
-19 15 -10 37 -16 50 -14 15 2 23 -2 23 -12 0 -16 -9 -16 -70 -1 -22 5 -78 13
-125 16 -128 8 -190 16 -196 26 -7 12 -121 11 -143 -1 -12 -6 -30 -6 -52 1
-19 5 -51 11 -73 13 -23 2 -42 10 -48 20 -11 20 -54 21 -61 2 -3 -8 -1 -17 6
-20 7 -2 2 -5 -11 -5 -13 -1 -25 6 -29 17 -11 30 -43 43 -43 17 0 -7 8 -19 18
-25 14 -8 13 -9 -10 -6 -20 3 -25 1 -21 -10 7 -20 -7 -18 -22 3 -9 12 -10 23
-4 35 6 12 6 18 -1 18 -5 0 -10 -7 -10 -15 0 -11 -7 -14 -27 -10 -19 3 -22 3
-10 -3 15 -7 16 -10 3 -27 -12 -17 -16 -18 -31 -5 -10 8 -27 15 -39 17 -11 1
-45 4 -73 7 l-53 6 0 -124 0 -123 57 -12 c70 -14 110 -14 118 -1 3 6 23 8 43
5 20 -3 61 -7 90 -9 33 -1 59 -9 69 -19 26 -26 8 -32 -56 -19 -42 9 -66 9 -89
1 -20 -7 -37 -7 -49 -1 -10 5 -47 13 -83 17 -36 3 -73 9 -82 11 -16 5 -18 -4
-18 -99 l0 -104 63 -11 c142 -26 254 -51 289 -66 21 -9 51 -16 67 -16 35 0 61
-9 61 -21 0 -5 -11 -9 -25 -9 -50 0 -23 -18 38 -24 34 -4 78 -11 97 -16 19 -5
58 -12 85 -15 28 -4 66 -11 85 -16 56 -14 110 -12 110 6 0 10 11 15 35 15 19
0 35 5 35 10 0 6 -8 10 -18 10 -11 0 -27 8 -36 19 -9 10 -35 22 -58 25 -51 8
-85 25 -69 35 19 12 -17 37 -101 70 -42 17 -92 31 -112 31 -25 0 -36 4 -36 15
0 19 45 20 102 1 77 -26 175 -45 260 -51 46 -3 106 -10 133 -15 28 -5 71 -12
97 -15 26 -4 54 -13 62 -21 8 -8 19 -14 24 -14 19 0 19 -25 0 -58 -15 -28 -16
-33 -3 -37 8 -3 23 -8 33 -11 9 -3 56 -8 104 -10 48 -2 99 -9 113 -14 15 -6
39 -10 54 -10 19 0 30 -6 34 -18 2 -12 17 -22 36 -25 17 -4 43 -18 56 -33 13
-14 30 -24 38 -21 7 2 44 -1 82 -9 39 -7 107 -16 153 -19 46 -3 108 -14 139
-25 31 -11 59 -17 64 -14 5 2 38 5 73 5 47 1 70 -4 82 -15 20 -20 28 -20 20
-1 -3 10 1 15 13 15 10 0 21 -7 25 -15 3 -8 0 -15 -6 -15 -33 0 7 -10 81 -20
47 -6 97 -18 112 -26 16 -8 48 -14 73 -14 25 0 48 -4 51 -10 3 -5 15 -10 26
-10 10 0 19 5 19 10 0 13 34 13 82 -2 61 -18 143 16 116 49 -7 9 -7 13 1 13 6
0 11 5 11 10 0 6 -8 10 -19 10 -10 0 -24 7 -31 15 -7 8 -27 15 -44 15 -17 0
-65 10 -106 21 -109 31 -144 34 -159 15 -8 -9 -24 -16 -37 -16 -15 0 -24 -6
-24 -16 0 -12 -7 -15 -25 -12 -14 3 -28 1 -31 -4 -6 -9 -24 -1 -24 12 0 4 11
11 25 14 14 4 25 10 25 14 0 4 -28 28 -63 54 -49 36 -69 45 -90 41 -28 -6 -67
18 -67 41 0 7 -22 34 -49 60 -39 39 -54 47 -72 43 -13 -4 -48 1 -78 10 -42 12
-62 13 -89 5 -29 -9 -37 -8 -47 5 -10 13 -24 15 -75 10 -35 -3 -69 -12 -77
-20 -13 -13 -19 -13 -46 2 -18 8 -58 17 -90 18 -32 0 -65 7 -73 14 -8 6 -37
14 -65 17 -27 2 -52 9 -55 13 -3 5 -15 9 -26 9 -12 0 -30 8 -41 18 -15 13 -38
17 -107 18 -68 0 -91 4 -105 17 -9 9 -22 17 -28 18 -7 0 -28 2 -47 4 -19 2
-38 -2 -42 -8 -5 -8 -19 2 -40 26 -19 20 -41 37 -50 37 -8 0 -21 7 -29 16 -8
9 -21 13 -35 10 -13 -4 -26 -1 -30 5 -3 6 -19 9 -34 5 -17 -3 -32 0 -39 8 -7
9 -28 11 -64 8 -40 -3 -61 0 -81 13 -26 17 -76 14 -76 -5 0 -12 -31 -1 -45 16
-5 6 -33 17 -62 24 -58 13 -93 40 -46 34 16 -2 73 -5 128 -8 55 -3 116 -9 135
-13 19 -4 60 -6 90 -4 169 10 330 2 368 -18 17 -8 104 -24 210 -37 39 -4 51
-9 43 -17 -20 -20 -12 -25 52 -36 118 -20 179 -8 108 22 -49 21 -15 34 84 31
89 -3 130 -8 275 -39 41 -8 81 -12 90 -9 18 9 -27 21 -82 23 -21 0 -52 10 -70
22 l-33 21 60 -7 c33 -4 80 -13 105 -22 25 -8 68 -17 95 -19 l50 -5 -33 27
-32 27 22 11 c14 7 23 21 22 33 0 17 7 22 39 27 22 4 43 3 46 -2 11 -16 36
-19 46 -6 7 9 21 11 45 6 24 -5 31 -10 22 -16 -10 -6 -9 -11 5 -22 26 -19 36
-17 30 6 -6 24 -6 24 57 5 27 -8 65 -15 85 -15 27 0 32 -3 23 -12 -7 -7 -12
-20 -12 -29 0 -17 43 -29 107 -29 17 0 35 -5 38 -10 4 -7 -13 -8 -52 -4 -36 3
-54 2 -48 -4 18 -16 119 -42 200 -51 78 -9 100 -7 79 7 -6 4 -14 19 -18 35 -5
23 -12 27 -44 29 -94 3 -122 8 -144 21 -13 8 -38 18 -55 22 -51 10 -39 26 15
20 26 -3 79 -7 117 -9 118 -8 189 -19 211 -33 12 -7 52 -16 90 -18 l69 -5 -39
18 c-31 14 -36 20 -24 29 15 13 92 1 115 -18 7 -6 17 -8 22 -5 10 7 51 -12 63
-28 3 -5 57 -8 118 -7 89 2 111 -1 107 -11 -2 -7 -12 -12 -21 -10 -9 2 -24 -1
-34 -7 -15 -8 -14 -11 11 -20 15 -6 53 -15 83 -20 44 -6 58 -5 70 6 10 11 24
13 47 8 18 -4 53 -8 79 -9 28 -1 54 -8 66 -19 23 -21 42 -22 42 -2 0 8 -7 15
-15 15 -16 0 -66 50 -60 61 4 5 76 11 130 9 41 -1 52 -1 79 4 16 2 33 10 37
18 4 7 16 13 26 14 43 2 53 4 53 12 0 5 -18 8 -40 8 -22 -1 -42 4 -43 9 -2 6
-18 5 -41 -3 -37 -14 -51 -11 -51 11 0 7 -18 13 -45 14 -25 1 -79 8 -120 17
-41 8 -100 17 -130 20 -83 9 -110 17 -123 37 -14 23 -57 26 -57 4 0 -12 -9
-13 -47 -8 -27 3 -55 12 -63 19 -23 20 -109 54 -136 54 -13 0 -24 5 -24 10 0
6 -18 30 -41 55 -47 51 -120 85 -143 66 -9 -7 -61 -14 -127 -17 -62 -2 -114
-6 -117 -9 -9 -9 -61 25 -81 53 -11 16 -39 37 -63 47 -24 11 -47 25 -51 32
-12 19 -38 16 -62 -7 -49 -46 -189 -25 -293 42 -24 15 -44 27 -45 26 -1 -1
-26 -3 -54 -5z"/>
<path d="M4760 4198 c0 -73 22 -222 36 -243 8 -11 14 -29 14 -40 0 -12 5 -26
12 -33 16 -16 3 -15 -22 0 -15 10 -22 10 -32 0 -6 -6 -17 -12 -22 -12 -7 0 -6
3 1 8 6 4 -22 8 -63 8 -50 1 -73 -3 -71 -10 2 -6 18 -12 36 -14 26 -3 30 -6
21 -17 -18 -21 43 -30 80 -12 16 9 30 12 30 7 0 -4 8 -6 18 -3 13 3 25 -5 36
-22 10 -15 14 -25 8 -21 -5 3 -16 -2 -23 -12 -12 -15 -12 -16 2 -5 12 10 18
10 29 0 10 -9 11 -9 6 1 -9 16 16 16 32 0 16 -16 15 -7 -4 30 -19 40 -36 191
-32 306 l2 88 -34 19 c-52 27 -60 25 -60 -23z"/>
<path d="M4017 3871 c4 -17 1 -21 -21 -21 -14 0 -35 6 -46 12 -17 11 -22 9
-36 -11 -11 -14 -23 -21 -35 -18 -12 3 -19 0 -19 -9 0 -8 -7 -14 -15 -14 -8 0
-15 -4 -15 -10 0 -5 21 -10 46 -10 45 0 138 -25 162 -43 7 -5 54 -11 105 -14
50 -2 103 -6 117 -10 14 -3 38 -5 54 -4 16 2 38 -2 50 -7 19 -9 158 -29 243
-35 18 -1 42 -10 53 -20 25 -21 34 -22 27 -3 -5 12 2 14 32 12 20 -1 42 -6 48
-9 6 -4 36 -9 67 -11 31 -3 60 -7 65 -10 5 -4 13 -1 16 4 5 7 11 5 19 -6 7 -9
18 -15 25 -13 9 3 8 9 -2 23 -10 14 -46 23 -154 40 -78 12 -145 25 -149 29 -4
4 -27 7 -50 7 -24 0 -45 4 -49 9 -3 6 27 9 75 8 44 -1 80 -5 80 -8 0 -4 16 -5
35 -2 20 3 41 0 48 -6 17 -14 127 -31 127 -19 0 5 -7 20 -16 33 -13 20 -25 25
-60 25 -23 0 -46 5 -49 10 -9 14 -52 12 -58 -2 -3 -8 -6 -9 -6 -2 -1 7 -12 9
-27 6 -17 -3 -25 -1 -21 6 4 5 0 13 -9 16 -22 9 -24 8 -18 -9 4 -8 1 -15 -5
-15 -6 0 -11 6 -11 14 0 20 -27 27 -40 10 -16 -18 -30 -18 -30 1 0 8 -7 15
-16 15 -14 0 -14 -2 -3 -16 12 -15 10 -16 -21 -9 -19 4 -42 14 -52 22 -12 11
-26 13 -58 6 -46 -9 -53 -23 -21 -39 54 -27 42 -27 -159 1 -140 20 -147 21
-186 30 -20 4 -34 3 -38 -4 -12 -19 -21 -12 -21 14 0 24 3 25 35 21 116 -17
130 -18 158 -3 17 8 45 13 64 11 31 -3 32 -3 14 11 -27 21 -155 21 -170 0 -14
-19 -57 -9 -54 13 2 9 -5 18 -14 20 -12 2 -15 -2 -11 -17z"/>
<path d="M3769 3736 c10 -12 80 -30 161 -40 19 -2 55 -9 80 -16 86 -22 272
-39 291 -27 15 9 22 7 41 -12 13 -15 23 -20 26 -13 4 14 32 16 32 3 0 -5 -6
-12 -12 -14 -7 -3 -4 -6 7 -6 11 0 27 3 35 9 9 5 19 5 27 -1 6 -6 27 -12 45
-14 18 -2 87 -15 153 -29 126 -27 177 -31 235 -18 40 9 70 5 70 -9 0 -5 -14
-12 -31 -16 -34 -6 -22 -23 17 -23 25 0 38 42 20 64 -17 21 -206 50 -561 87
-49 5 -100 14 -113 19 -30 13 -72 13 -72 0 0 -15 -30 -12 -36 4 -5 13 -54 26
-124 31 -19 2 -79 10 -132 19 -125 21 -175 21 -159 2z"/>
<path d="M2885 3560 c-16 -4 -46 -8 -66 -9 -34 -1 -35 -3 -31 -31 4 -29 3 -30
-20 -21 -34 13 -158 2 -152 -13 7 -19 205 -41 233 -26 21 11 63 9 113 -6 12
-4 17 2 20 23 3 26 5 28 46 25 38 -3 43 -2 40 15 -2 13 -12 18 -34 18 -17 0
-38 6 -46 12 -20 17 -67 23 -103 13z"/>
<path d="M4400 3452 c0 -4 5 -13 10 -18 17 -17 -112 -39 -140 -24 -18 10 -21
9 -18 -2 3 -7 17 -14 31 -16 15 -2 27 -9 27 -17 0 -20 60 -27 180 -21 78 4
108 10 116 21 15 20 45 19 134 -6 42 -12 91 -19 111 -16 20 3 43 1 51 -4 14
-8 59 -17 108 -21 34 -3 103 2 98 8 -4 3 -25 8 -49 10 -24 3 -50 9 -58 13 -9
5 -50 14 -91 20 -41 7 -82 15 -90 18 -8 3 -31 7 -50 9 -19 2 -40 11 -46 19 -8
11 -20 14 -37 10 -15 -4 -39 0 -60 10 -29 14 -44 15 -92 6 -38 -7 -63 -7 -75
-1 -22 12 -60 13 -60 2z"/>
<path d="M3510 3295 c-18 -10 -20 -14 -9 -21 10 -6 -4 -11 -41 -14 l-55 -6 30
-13 c17 -7 39 -14 50 -16 11 -1 43 -6 70 -10 70 -12 171 -9 168 4 -2 6 2 11 7
11 6 0 10 -6 10 -14 0 -8 13 -17 30 -21 16 -4 39 -18 49 -31 16 -20 28 -25 63
-23 24 1 55 -2 69 -5 17 -5 29 -3 38 8 10 12 16 10 43 -16 23 -22 36 -28 55
-23 40 10 166 7 198 -4 l30 -11 -25 20 c-17 13 -40 20 -72 20 -52 0 -118 26
-118 47 0 26 -38 35 -96 23 -31 -7 -65 -10 -75 -7 -11 3 -19 0 -19 -8 0 -26
-50 -12 -91 26 -42 39 -104 58 -149 46 -11 -3 -20 -2 -20 2 0 8 -62 36 -96 44
-12 2 -31 -1 -44 -8z"/>
<path d="M1178 2320 c-18 -14 -34 -18 -59 -14 -26 5 -41 1 -59 -15 -24 -20
-24 -22 -7 -35 26 -20 118 -29 166 -16 36 9 41 14 41 40 0 20 -6 31 -20 35
-11 3 -20 11 -20 16 0 14 -15 11 -42 -11z"/>
<path d="M1621 2317 c-6 -6 -48 -12 -97 -13 -57 -1 -89 -6 -94 -14 -4 -7 -12
-10 -18 -6 -6 3 -17 -2 -24 -12 -7 -10 -22 -24 -33 -30 -18 -10 -17 -11 13
-12 20 0 31 4 27 10 -8 13 45 13 65 0 12 -8 11 -10 -7 -10 -26 0 -27 -3 -12
-31 7 -13 19 -19 33 -17 13 1 30 -3 38 -10 9 -7 52 -14 99 -16 46 -2 97 -9
112 -15 l29 -11 -24 -20 c-13 -11 -32 -26 -42 -34 -28 -19 -13 -33 52 -47 31
-7 66 -17 77 -23 11 -5 50 -9 88 -8 41 1 67 -2 67 -9 0 -5 5 -7 12 -3 6 4 41
6 77 5 l66 -1 -44 20 c-34 16 -42 24 -38 40 3 11 0 20 -6 20 -7 0 -25 9 -40
19 l-29 19 30 13 c33 14 33 29 1 29 -11 0 -17 5 -14 10 3 6 1 10 -4 10 -6 0
-11 -4 -11 -8 0 -4 -9 -8 -20 -9 -11 -1 -19 4 -17 10 1 7 -8 11 -20 10 -13 -2
-23 2 -23 7 0 6 5 10 11 10 8 0 8 5 -1 15 -7 8 -25 15 -40 15 -39 0 -42 9 -12
35 l27 23 -37 7 c-20 4 -49 4 -65 1 -20 -5 -46 1 -85 18 -41 18 -58 22 -67 13z"/>
<path d="M2946 2081 c-4 -6 -25 -11 -47 -11 -32 0 -39 -3 -39 -20 0 -11 5 -20
11 -20 6 0 22 -9 36 -20 14 -11 34 -20 44 -20 11 0 19 -4 19 -10 0 -5 -7 -10
-15 -10 -17 0 -20 -16 -4 -25 16 -11 61 4 53 17 -5 8 0 9 17 4 30 -9 38 -10
117 -8 48 2 62 5 62 17 0 8 -7 15 -16 15 -10 0 -14 6 -11 14 6 16 -44 56 -71
56 -10 0 -22 4 -28 10 -15 15 -120 24 -128 11z"/>
<path d="M2357 1793 c-4 -3 -7 -19 -7 -34 0 -20 6 -28 23 -33 13 -3 41 -18 63
-33 35 -24 51 -28 159 -34 130 -8 203 3 182 26 -7 7 -15 11 -19 9 -9 -6 -48
18 -48 30 0 4 7 3 15 -4 8 -6 20 -10 27 -7 8 3 3 9 -12 15 -17 7 -29 6 -39 -2
-11 -8 -13 -8 -7 2 4 7 2 12 -6 13 -32 2 -66 11 -103 29 -49 23 -140 37 -149
22 -4 -7 -17 -7 -39 -1 -38 11 -32 10 -40 2z"/>
<path d="M4446 853 c-3 -10 -8 -35 -12 -57 -3 -21 -7 -46 -9 -56 -2 -9 1 -23
6 -31 7 -11 9 -11 9 4 0 9 5 17 11 17 11 0 3 -37 -13 -57 -5 -7 -5 -14 2 -18
14 -8 32 4 24 17 -8 12 16 29 29 21 4 -2 3 -11 -4 -19 -14 -17 -6 -29 16 -21
15 6 16 15 19 127 1 46 -10 74 -25 64 -5 -3 -12 2 -15 10 -8 21 -31 20 -38 -1z"/>
<path d="M7250 744 c0 -38 22 -271 36 -386 4 -32 10 -58 14 -58 8 0 17 134 23
328 2 91 1 102 -14 102 -10 0 -27 12 -38 26 l-21 27 0 -39z"/>
</g>
</svg>
